<?xml version="1.0" encoding="UTF-8"?>
<svg id="Layer_2" data-name="Layer 2" xmlns="http://www.w3.org/2000/svg" viewBox="0 0 385.6 60.27">
  <defs>
    <style>
      .cls-1 {
        fill: #fff;
      }
    </style>
  </defs>
  <g id="Layer_1-2" data-name="Layer 1">
    <g>
      <g>
        <path class="cls-1" d="M89.04,1.91c2.57,1.27,4.55,3.09,5.96,5.46,1.41,2.37,2.11,5.11,2.11,8.24s-.7,5.86-2.11,8.2c-1.41,2.34-3.39,4.15-5.96,5.42-2.57,1.27-5.53,1.91-8.87,1.91h-9.04v15.74h-10.05V0h19.09C83.52,0,86.47.64,89.04,1.91ZM79.23,22.77c2.37,0,4.24-.65,5.63-1.94,1.38-1.29,2.08-3.04,2.08-5.22s-.69-4-2.08-5.29c-1.38-1.29-3.26-1.94-5.63-1.94h-8.1v14.4h8.1Z"/>
        <path class="cls-1" d="M122.96,21.03h-3.75c-2.68,0-4.64.8-5.89,2.41-1.25,1.61-1.88,3.8-1.88,6.56v16.88h-9.44V12.46h8.57l.87,5.16c1.03-1.7,2.3-2.98,3.82-3.85,1.52-.87,3.55-1.31,6.09-1.31h1.61v8.57Z"/>
        <path class="cls-1" d="M126.94,38.91c-1.5-2.68-2.24-5.76-2.24-9.24s.75-6.56,2.24-9.24c1.5-2.68,3.62-4.74,6.36-6.19,2.75-1.45,5.93-2.18,9.54-2.18s6.8.73,9.54,2.18,4.87,3.52,6.36,6.19c1.5,2.68,2.24,5.76,2.24,9.24s-.75,6.62-2.24,9.28c-1.5,2.66-3.62,4.71-6.36,6.16-2.75,1.45-5.93,2.18-9.54,2.18s-6.8-.73-9.54-2.18c-2.75-1.45-4.87-3.52-6.36-6.19ZM151.42,29.67c0-2.95-.77-5.34-2.31-7.17-1.54-1.83-3.63-2.75-6.26-2.75s-4.65.92-6.19,2.75c-1.54,1.83-2.31,4.22-2.31,7.17s.77,5.34,2.31,7.17c1.54,1.83,3.61,2.75,6.19,2.75s4.72-.92,6.26-2.75c1.54-1.83,2.31-4.22,2.31-7.17Z"/>
        <path class="cls-1" d="M220.13,27.99v18.95h-9.44v-19.29c0-5.22-1.99-7.84-5.96-7.84-2.05,0-3.71.73-4.96,2.18-1.25,1.45-1.88,3.47-1.88,6.06v18.89h-9.44v-19.29c0-5.22-2.01-7.84-6.03-7.84-2.05,0-3.69.75-4.92,2.24-1.23,1.5-1.84,3.52-1.84,6.06v18.82h-9.44V12.46h8.24l.87,4.29c1.16-1.47,2.55-2.61,4.15-3.42s3.62-1.23,6.03-1.27c4.91,0,8.33,1.94,10.25,5.83,1.25-1.88,2.89-3.32,4.92-4.32,2.03-1,4.34-1.51,6.93-1.51,3.71,0,6.72,1.23,9.04,3.68,2.32,2.46,3.48,6.54,3.48,12.26Z"/>
        <path class="cls-1" d="M259.81,20.43c1.36,2.68,2.04,5.78,2.04,9.31s-.68,6.61-2.04,9.24c-1.36,2.63-3.25,4.68-5.66,6.13-2.41,1.45-5.16,2.18-8.24,2.18-4.42,0-7.88-1.58-10.38-4.75v17.75h-9.44V12.46h8.24l.94,4.75c1.16-1.56,2.65-2.81,4.45-3.75,1.81-.94,3.9-1.41,6.26-1.41,3.08,0,5.82.73,8.2,2.18,2.39,1.45,4.26,3.52,5.63,6.19ZM252.27,29.6c0-2.95-.78-5.32-2.34-7.13-1.56-1.81-3.62-2.71-6.16-2.71s-4.58.9-6.09,2.71c-1.52,1.81-2.28,4.19-2.28,7.13s.76,5.4,2.28,7.23c1.52,1.83,3.55,2.75,6.09,2.75s4.6-.93,6.16-2.78c1.56-1.85,2.34-4.25,2.34-7.2Z"/>
        <path class="cls-1" d="M263.45,20.43v-7.97h5.69V2.81h9.44v9.64h7.84v7.97h-7.84v15.07c0,1.21.26,2.08.77,2.61.51.54,1.37.8,2.58.8h4.89v7.97h-7.84c-6.56,0-9.84-3.28-9.84-9.84v-16.61h-5.69Z"/>
        <path class="cls-1" d="M324.46,46.88h-4.82c-4.33,0-6.45-1.88-6.36-5.63-1.25,1.96-2.79,3.46-4.62,4.49-1.83,1.03-4.04,1.54-6.63,1.54-3.84,0-6.93-.88-9.28-2.65-2.34-1.76-3.52-4.25-3.52-7.47,0-3.66,1.35-6.49,4.05-8.47,2.7-1.99,6.62-2.98,11.75-2.98h6.83v-1.67c0-1.56-.58-2.8-1.74-3.72-1.16-.91-2.72-1.37-4.69-1.37-1.74,0-3.17.38-4.29,1.14-1.12.76-1.79,1.79-2.01,3.08h-9.11c.31-3.53,1.88-6.26,4.69-8.2,2.81-1.94,6.54-2.91,11.18-2.91s8.63,1.07,11.28,3.21c2.66,2.14,3.98,5.25,3.98,9.31v12.12c0,.85.18,1.43.54,1.74s.92.47,1.67.47h1.07v7.97ZM304.97,32.01c-1.96,0-3.49.39-4.59,1.17s-1.64,1.89-1.64,3.32c0,1.21.46,2.17,1.37,2.88s2.15,1.07,3.72,1.07c2.46,0,4.4-.7,5.83-2.11,1.43-1.41,2.17-3.29,2.21-5.66v-.67h-6.9Z"/>
        <path class="cls-1" d="M362.03,46.88h-4.82c-4.33,0-6.45-1.88-6.36-5.63-1.25,1.96-2.79,3.46-4.62,4.49-1.83,1.03-4.04,1.54-6.63,1.54-3.84,0-6.93-.88-9.28-2.65-2.34-1.76-3.52-4.25-3.52-7.47,0-3.66,1.35-6.49,4.05-8.47,2.7-1.99,6.62-2.98,11.75-2.98h6.83v-1.67c0-1.56-.58-2.8-1.74-3.72-1.16-.91-2.72-1.37-4.69-1.37-1.74,0-3.17.38-4.29,1.14-1.12.76-1.79,1.79-2.01,3.08h-9.11c.31-3.53,1.88-6.26,4.69-8.2,2.81-1.94,6.54-2.91,11.18-2.91s8.63,1.07,11.28,3.21c2.66,2.14,3.98,5.25,3.98,9.31v12.12c0,.85.18,1.43.54,1.74s.92.47,1.67.47h1.07v7.97ZM342.54,32.01c-1.96,0-3.49.39-4.59,1.17s-1.64,1.89-1.64,3.32c0,1.21.46,2.17,1.37,2.88s2.15,1.07,3.72,1.07c2.46,0,4.4-.7,5.83-2.11s2.17-3.29,2.21-5.66v-.67h-6.9Z"/>
        <path class="cls-1" d="M362.23,20.43v-7.97h5.69V2.81h9.44v9.64h7.84v7.97h-7.84v15.07c0,1.21.26,2.08.77,2.61.51.54,1.37.8,2.58.8h4.89v7.97h-7.84c-6.56,0-9.84-3.28-9.84-9.84v-16.61h-5.69Z"/>
      </g>
      <g>
        <path class="cls-1" d="M10.05,0v46.88H0V0h10.05Z"/>
        <path class="cls-1" d="M28.06,0v46.88h-10.05V0h10.05Z"/>
        <path class="cls-1" d="M44.73,0v30.59h-9.44V0h9.44Z"/>
      </g>
    </g>
  </g>
</svg>